<?xml version="1.0" encoding="utf-8"?>
<!-- Generator: Adobe Illustrator 21.1.0, SVG Export Plug-In . SVG Version: 6.00 Build 0)  -->
<svg version="1.1" id="Layer_1" xmlns="http://www.w3.org/2000/svg" xmlns:xlink="http://www.w3.org/1999/xlink" x="0px" y="0px"
	 viewBox="0 0 584.7 212" style="enable-background:new 0 0 584.7 212;" xml:space="preserve">
<style type="text/css">
	.st0{fill:#E4E6E6;}
	.st1{fill:#003A66;}
	.st2{fill:#2B2E33;}
	.st3{fill:#1167B0;}
	.st4{fill:#FFFFFF;}
	.st5{fill:none;}
	.st6{fill:#FFFFFE;}
	.st7{fill-rule:evenodd;clip-rule:evenodd;fill:#1167B0;}
	.st8{fill:#8CB872;}
	.st9{fill:#88AD74;}
	.st10{fill:#B53535;}
	.st11{fill:#598A3E;}
	.st12{fill:#ED735B;}
	.st13{fill:#A7A8A8;}
	.st14{fill:#737575;}
	.st15{fill:#003FA2;}
	.st16{fill:none;stroke:#FFFFFF;stroke-width:2;stroke-miterlimit:10;}
	.st17{opacity:0.7;clip-path:url(#SVGID_2_);fill:#003A66;}
	.st18{fill:none;stroke:#FFFFFF;stroke-width:3;stroke-miterlimit:10;}
	.st19{clip-path:url(#SVGID_4_);}
	.st20{fill:none;stroke:#A7A8A8;stroke-miterlimit:10;}
</style>
<g>
	<g>
		<path class="st3" d="M218.9,72.9c0.8,0,1.5-0.3,2-1l4.3-5.7c0.5-0.6,0.6-1.5,0.4-2.3c-0.2-0.8-0.9-1.4-1.6-1.6
			c-0.3-0.1-0.6-0.2-0.9-0.3c-2.6-0.8-5.2-1.6-9.3-1.8c-0.4,0-0.9,0-1.3,0c-0.1-1.5,0-4.6-0.6-5c-1.1-0.9-4,0.2-5.1,0.5
			c-1.5-2-5.2-1.5-7-3.3c-3.3-0.5-4.3-3.6-7.8-3.7c-0.2,0.2-0.2,0.7-0.4,1c-2.9,2.1-5-1.4-7.9,0.5c-1.7,1.7-4.1,0-6.8,1.6
			c0.2,1.5-0.9,1.5-1.9,1.3c-0.8,2.7-1.5-0.7-3.4-0.2c-0.3-0.8-1.5-0.7-2-1.3c-0.1-0.3,0.2-0.6,0-0.8c0,0-0.1-0.1-0.2-0.1
			c4.9-4,9.7-6.1,14.1-7.7c1.1-0.4,1.8-1.5,1.6-2.7c-0.2-1.2-1.2-2-2.4-2.1l-13.5-0.4c0,0,0,0-0.1,0c-0.3,0-0.5,0-0.7,0.1
			c-4.2,1.3-10.3,6.6-15.2,12.1c0-0.1,0-0.2-0.1-0.2c-2.4-1.3-3.5,4.2-6,1.3c1-2.4-3.5-1.2-2.4-4.5c-1,1.1-2.8-0.3-4,0.1
			c-0.7,0.2-0.7,1.5-1.6,1.6c-1.4,0.2-1.6-1.6-2.6-1.8c-0.9-0.2-1.6,0.6-2.7,0.4c-1.3-0.2-2.8-1.3-3.7-1.4c-1.7-0.2-4.1,0.5-3.4-2.1
			c-0.6-0.4-1.9-2.7-3-2.4c-0.5,0.2-0.3,1.2-0.8,1.3c-0.9,0.2-1.4-1-2.2-0.8c-0.5,0.1-0.6,0.8-1,0.8c-2.8,0.5-3.4-4.6-6.1-3.9
			c-0.4-12.1-0.1-25-0.5-37.4C97.5,0.5,80.7,0.4,64.9,0.5c-1,29.1-1.9,58.9-3,87.9C41.7,88.3,20.4,87.2,0.6,87
			c-1.4,4,2.4,3.8,4.1,5.4c1.5,1.4,1.4,4.1,3,5.2c0.9,0.7,2.4,0.9,3.4,1.6c1.4,1.1,2.4,3.3,3.7,4.6c0.8,0.8,2.3,1.1,2.9,1.9
			c1.7,2.4,3.1,5.2,6.5,5.7c0.8,1.3,2.3,1.7,3.5,2.6c1.8,1.5,1.2,3.3,2.4,5.6c0.8,1.5,2,2.1,2.5,3.4c0.8,2-0.6,4.3,0.2,6.5
			c0.3,0.9,1.2,1.4,1.6,2.2c1.8,3.8,3.1,4,6.2,6.4c0.5,0.4,0.5,1.2,0.8,1.8c1.4,2.1,4.4,1.3,6.4,2.8c2.3,1.7,5,3.9,7.8,4.6
			c3.1,3.7,4.4-1.6,6.4-2.8c0.5-0.3,1.7-0.3,1.8-0.9c0.6-3.2,1.8-7.4,3.8-9.9c1.8-0.4,2.9-1,5-0.7c0.8-3.3,5-0.4,8.2-0.2
			c2.1,0.1,4.5,0.9,6.3,0.1c2.3-0.3,2.5,2.2,4.2,2.9c0,0.3,0,0.6,0.1,0.8c0.3,0.1,0.5-0.2,0.7-0.1c0.2,0.4-0.1,1,0.1,1.4
			c2.4,0.3,3.1,1.7,4.4,3.2c1.4,1.6,3.6,2.7,5,4.5c-0.5,0.7-1,1.3-1.5,1.9c-4.9,5.9-7.8,6.8-9,6.8c0,0-0.1,0-0.1,0
			c-0.2-0.1-0.5-0.2-0.9-0.2c-0.9,0-1.8,0.5-2.2,1.4c-0.2,0.4-0.3,0.8-0.3,1.2c0,0.9,0,0.9,3.8,5.4c1.6,1.9,3.2,3.8,3.2,3.8
			c0.3,0.4,0.8,0.7,1.4,0.8c0.1,0,0.4,0.1,0.8,0.1c0,0,0.1,0,0.2,0c2,0,5.9-2.6,10.9-8c-0.4,1.6,1.2,2.5,1.2,4.1
			c2.1,1.8,4.5,3.8,6.2,6.1c0.8,1.1,0.4,2.8,1.2,3.6c0.7,0.7,2,2.1,2.9,2.8c0.7,0.5,2.5,0.6,2.8,1.2c1.3,2.2-0.2,3.3,0.2,5.5
			c0.2,1,1.7,1,1.8,2.6c0.1,0.9-0.5,2.5-0.2,3.3c0.2,0.4,0.8,0.5,1,0.9c1.8,3.5,4.5,7.1,5.3,11.3c3.2,1,6.3,1.2,7.9,3.7
			c3-0.5,4.8,1.7,7.1,2.4c2.2,3.1,8.3-0.2,11.7,2c1.6,1.1,2.2,3.8,5,3.4c0.1-2,1.9-2.2,3.8-2.3c-0.1-0.8-0.8-1-1.6-1.1
			c0.6-1.9-1.2-2-1.7-3.5c-0.4-1,0-2.7-0.5-3.5c-0.5-0.7-1.8-1.2-1.7-2.3c0.3-3.7-1.2-6.4-2.1-10.1c2.3-0.4,0.8-4,2.1-5.8
			c-1.6,0.7-0.4-1.1,0.4-1.3c0.8-2.5,1.6-5.3,2.6-7.5c-1.2-0.6-0.6-2.6,0.8-2.7c1.2,0,3.4-4.1,3-5.8c-1.1,0.3-0.2-0.8,0-0.7
			c2.8,0.7,5.5-2.6,3.6-5.3c0.6,0,0.8-0.3,1.2-0.5c1.2,3.4,4.2,0.6,6.1-0.7c-0.4-0.6,5.6-4.3,7-4.4c0.2,0.1,0,0.7,0.2,0.9
			c0.8-0.2,1-0.7,0.7-1.1c0.5-1.7,3.1-2.1,4.9-1.9c3.8-2.3,7.7-4.5,8.6-9.7c2.6,0.4,1.9-2.9,4.1-2.7c1.2-2.1,2.7-2.9,2.2-1.3
			c4.7-2.7,8.8-6.5,15.8-7c-0.1-1.2-1.9-1.6-1.9-2.8c-0.1-3.2,4-3.6,3.8-6.8c-0.1-1.4-1.1-3-1.4-3.9c-0.3-1,0.6-1.2,0.7-2.4
			c0.1-1.7-1-3.7,1.1-4.9c0.9-4.1,0.8-5.9,0.4-9.8c-0.4-0.1-0.6,0.2-1,0.1c-1.3-2.1-1.2-3.9-2.9-5.6c0-0.4,0.4-0.3,0.3-0.8
			c-0.8-0.4-1.9-0.6-2.1-1.6c1.8-4.3-3-5.1-4-7.8c-0.7-2-0.5-6.3-0.7-8.8c-0.1-1.8-0.3-3.6-0.4-5.2c2.2,0.4,3.5,1,4.6,1.5
			C218.2,72.8,218.5,72.9,218.9,72.9z M217.3,69.7C217.3,69.7,217.2,69.7,217.3,69.7c-1.1-0.4-2.4-0.8-4.2-1.1
			c-0.8-0.1-1.6-0.2-2.5-0.2c-0.6,0-1.3-0.1-2.1-0.1c-2.2,0-4.7,0.2-7.9,0.5l-31.3,5.3c-6.7,13.5-14.8,28.6-16.5,32.1
			c-0.6,1.1-1.2,2.3-1.2,3.3c0,0.6,0.1,1.2,0.6,1.5c0.1,0.1,0.3,0.1,0.4,0.1c0,0,0.1,0,0.1,0c3.1,0,14.6-8.2,18.9-12.4
			c2-2,4.9-2.1,4.9-2.1c-6.7,9.2-24.9,22.1-31.3,22.1c-0.1,0-0.2,0-0.2,0c-0.4,0-0.8-0.1-1.1-0.3c-1.4-0.8-2.4-2.5-2.3-5.1
			c0.1-1.7,0.6-3.7,1.8-6l14.2-27.9l2-4L148.7,78c-9.6,19.8-23.9,48.3-23.9,48.3c-6.5,14.5-13.1,24.1-18.3,30.1l0,0
			c-3.4,3.9-6.2,6.2-7.9,7.2c0,0,0,0,0,0c-0.1,0.1-0.3,0.2-0.4,0.2c0,0-0.1,0-0.1,0c-0.1,0.1-0.2,0.1-0.3,0.2c0,0-0.1,0-0.1,0
			c-0.1,0-0.2,0.1-0.2,0.1c-0.1,0-0.1,0-0.2,0c0,0-0.1,0-0.1,0c-0.1,0-0.2,0-0.2,0c0,0,0,0,0,0c-0.2,0-0.4,0-0.4,0s-6.4-7.6-6.4-7.7
			l0,0c0,0,0,0,0.1,0.1c0.2,0,0.4,0,0.6,0c0.1,0,0.2,0,0.3,0c0.2,0,0.4,0,0.6,0c0.1,0,0.1,0,0.2,0c0.1,0,0.3,0,0.4-0.1
			c0.1,0,0.2,0,0.2-0.1c0.1,0,0.3-0.1,0.4-0.1c0.1,0,0.2-0.1,0.3-0.1c0.1,0,0.3-0.1,0.4-0.1c0.1,0,0.2-0.1,0.3-0.1
			c0.1-0.1,0.3-0.1,0.4-0.2c0.1,0,0.2-0.1,0.3-0.1c0.1-0.1,0.3-0.1,0.4-0.2c0.1-0.1,0.2-0.1,0.3-0.2c0.1-0.1,0.3-0.2,0.4-0.3
			c0.1-0.1,0.2-0.1,0.3-0.2c0.1-0.1,0.3-0.2,0.4-0.3c0.1-0.1,0.2-0.1,0.3-0.2c0.2-0.1,0.3-0.2,0.5-0.4c0.1-0.1,0.2-0.1,0.3-0.2
			c0.2-0.1,0.3-0.3,0.5-0.4c0.1-0.1,0.2-0.1,0.3-0.2c0.2-0.2,0.3-0.3,0.5-0.5c0.1-0.1,0.2-0.1,0.2-0.2c0.2-0.2,0.4-0.3,0.5-0.5
			c0.1-0.1,0.1-0.1,0.2-0.2c0.2-0.2,0.4-0.4,0.6-0.6c0.1-0.1,0.1-0.1,0.2-0.2c0.2-0.2,0.4-0.5,0.6-0.7c0.1-0.1,0.1-0.1,0.2-0.2
			c0.2-0.3,0.5-0.5,0.7-0.8c0,0,0.1-0.1,0.1-0.1c0.3-0.3,0.5-0.6,0.8-1c4-5,8.4-12,13.2-20.8l1.3-2.5l3.9-7.3
			c-2.1,2-5.5,4.3-7.4,5.4c-1.9,1.1-4.4,2.4-6.4,2.4c-0.1,0-0.2,0-0.2,0c-2.1-0.1-3.7-1.8-3.4-6.9c-5.9,5.1-12.6,8.4-16.5,8.4
			c-0.1,0-0.2,0-0.4,0c-1.1-0.1-2-0.4-2.5-1.1c-0.7-1-1.1-3-0.9-5.7c0.3-6.6,3.8-17.4,13.3-29.3c9.1-11.2,23.9-12,33.4-13.7
			c0.4-0.1,0.8-0.1,1.2-0.2l-17.8,34.9c-1.1,2.1-1.8,3.9-1.9,5.1c0,0.9,0.2,1.5,1,1.9c0.1,0,0.1,0,0.2,0.1c0,0,0,0,0.1,0
			c0.9,0,2.9-1.1,5.1-2.5c0,0,0,0,0,0c1.8-1.2,3.8-2.6,5.5-4l13.7-27.4l0.2-0.3l1.5-3.1c-0.2,0-0.5,0-0.7,0c-0.1,0-0.3,0-0.4,0
			c-2.8-0.2-4.7-2-4.1-5.1l1-0.2l6.9-1.4l7.2-14.5c1.7-3.6,5.9-8.7,10.3-12.9c0,0,0,0,0,0c0.3-0.3,0.6-0.5,0.9-0.8
			c0,0,0.1-0.1,0.1-0.1c0.3-0.3,0.6-0.5,0.9-0.8c0,0,0,0,0,0c0.6-0.5,1.2-1,1.8-1.5c0,0,0.1-0.1,0.1-0.1c0.2-0.2,0.5-0.4,0.7-0.6
			c0.1-0.1,0.1-0.1,0.2-0.2c0.2-0.2,0.4-0.3,0.6-0.5c0.1-0.1,0.1-0.1,0.2-0.2c0.2-0.2,0.5-0.3,0.7-0.5c0,0,0.1-0.1,0.1-0.1
			c0.3-0.2,0.5-0.4,0.8-0.5c0.1,0,0.1-0.1,0.2-0.1c0.2-0.1,0.4-0.2,0.6-0.4c0.1,0,0.2-0.1,0.2-0.1c0.2-0.1,0.3-0.2,0.5-0.3
			c0.1,0,0.2-0.1,0.2-0.1c0.2-0.1,0.3-0.1,0.5-0.2c0.1,0,0.1-0.1,0.2-0.1c0.2-0.1,0.4-0.2,0.6-0.2l13.5,0.4
			c-0.3,0.1-0.6,0.2-0.9,0.3c-0.1,0-0.2,0.1-0.3,0.1c-0.2,0.1-0.5,0.2-0.7,0.3c-0.1,0-0.2,0.1-0.3,0.1c-0.3,0.1-0.6,0.2-0.9,0.3
			c0,0-0.1,0-0.1,0c-0.3,0.1-0.7,0.3-1,0.4c-0.1,0-0.1,0.1-0.2,0.1c-0.3,0.1-0.5,0.2-0.8,0.4c-0.1,0-0.2,0.1-0.3,0.1
			c-0.3,0.1-0.6,0.3-0.9,0.4c0,0-0.1,0-0.1,0.1c-0.3,0.2-0.7,0.3-1,0.5c0,0-0.1,0-0.1,0.1c-0.3,0.2-0.6,0.3-0.9,0.5
			c-0.1,0-0.1,0.1-0.2,0.1c-0.3,0.2-0.6,0.3-0.9,0.5c-0.1,0-0.1,0.1-0.2,0.1c-0.7,0.4-1.4,0.9-2.1,1.3c-0.1,0-0.1,0.1-0.2,0.1
			c-0.3,0.2-0.6,0.4-0.9,0.6c-0.1,0-0.1,0.1-0.2,0.1c-0.7,0.5-1.4,1.1-2.1,1.7c-0.1,0-0.1,0.1-0.2,0.2c-0.3,0.3-0.6,0.5-0.9,0.8
			c-0.1,0.1-0.1,0.1-0.2,0.2c-0.3,0.3-0.7,0.6-1,1v0c-3.2,3.1-6.4,7.1-9.6,12.5c-0.5,0.8-3.8,7.8-4.3,8.9l10.6-2l2.6-4.1
			c4.3-8.6,13.2-8.9,13.2-8.9l-5.5,11c1.1-0.2,2.3-0.4,3.4-0.6c0.3-0.1,0.6-0.1,0.9-0.2c12.9-2.3,27.6-4.4,27.6-4.4
			c2.9-0.4,5.4-0.5,7.4-0.5c0.3,0,0.7,0,1,0h0c0.3,0,0.7,0,1,0c4.3,0.2,6.9,1.2,9.6,2l-4.3,5.7c-0.2-0.1-0.3-0.2-0.5-0.2
			c-0.1-0.1-0.2-0.1-0.4-0.2c-0.1,0-0.1-0.1-0.2-0.1C217.6,69.9,217.5,69.8,217.3,69.7z"/>
		<path class="st3" d="M119.1,84.6c1.2-1.8,1.9-2.8,1.9-2.8c-9.3,2.2-15.1,5.2-23.9,22.5c-2.6,5.1-4.2,9.6-4.4,12.5
			c-0.1,1.6,0.3,2.7,1.2,3.1c0.1,0.1,0.3,0.1,0.4,0.1c1.8,0.1,5.9-2.5,8.8-5.3c2.4-8.3,10.6-21.8,15-28.6
			C118.5,85.5,118.9,85,119.1,84.6z"/>
	</g>
	<path class="st6" d="M218.4,70.2c0.2,0.1,0.3,0.2,0.5,0.2l4.3-5.7c-2.8-0.8-5.4-1.8-9.6-2c-0.3,0-0.6,0-1,0h0c-0.3,0-0.6,0-1,0
		c-2.1,0-4.5,0.2-7.4,0.5c0,0-14.7,2.1-27.6,4.4c-0.3,0.1-0.6,0.1-0.9,0.2c-1.2,0.2-2.3,0.4-3.4,0.6l5.5-11c0,0-9,0.3-13.2,8.9
		l-2.6,4.1l-10.6,2c0.5-1.1,3.8-8.1,4.3-8.9c3.1-5.3,6.3-9.4,9.6-12.5c0.3-0.3,0.7-0.7,1-1c0.1-0.1,0.1-0.1,0.2-0.2
		c0.3-0.3,0.6-0.5,0.9-0.8c0.1,0,0.1-0.1,0.2-0.2c0.7-0.6,1.4-1.2,2.1-1.7c0.1,0,0.1-0.1,0.2-0.1c0.3-0.2,0.6-0.4,0.9-0.6
		c0.1,0,0.1-0.1,0.2-0.1c0.7-0.5,1.4-0.9,2.1-1.3c0.1,0,0.1-0.1,0.2-0.1c0.3-0.2,0.6-0.3,0.9-0.5c0.1,0,0.1-0.1,0.2-0.1
		c0.3-0.2,0.6-0.3,0.9-0.5c0,0,0.1,0,0.1-0.1c0.3-0.2,0.7-0.4,1-0.5c0,0,0.1,0,0.1-0.1c0.3-0.1,0.6-0.3,0.9-0.4
		c0.1,0,0.2-0.1,0.3-0.1c0.3-0.1,0.5-0.2,0.8-0.4c0.1,0,0.1-0.1,0.2-0.1c0.3-0.1,0.7-0.3,1-0.4c0,0,0.1,0,0.1,0
		c0.3-0.1,0.6-0.2,0.9-0.3c0.1,0,0.2-0.1,0.3-0.1c0.2-0.1,0.5-0.2,0.7-0.3c0.1,0,0.2-0.1,0.3-0.1c0.3-0.1,0.6-0.2,0.9-0.3l-13.5-0.4
		c-0.2,0.1-0.4,0.1-0.6,0.2c-0.1,0-0.1,0.1-0.2,0.1c-0.2,0.1-0.3,0.1-0.5,0.2c-0.1,0-0.2,0.1-0.2,0.1c-0.2,0.1-0.3,0.2-0.5,0.3
		c-0.1,0-0.2,0.1-0.2,0.1c-0.2,0.1-0.4,0.2-0.6,0.4c-0.1,0-0.1,0.1-0.2,0.1c-0.3,0.2-0.5,0.3-0.8,0.5c0,0-0.1,0.1-0.1,0.1
		c-0.2,0.2-0.5,0.3-0.7,0.5c-0.1,0.1-0.1,0.1-0.2,0.2c-0.2,0.2-0.4,0.3-0.6,0.5c-0.1,0.1-0.1,0.1-0.2,0.2c-0.2,0.2-0.5,0.4-0.7,0.6
		c0,0-0.1,0.1-0.1,0.1c-0.6,0.5-1.2,1-1.8,1.5c0,0,0,0,0,0c-0.3,0.3-0.6,0.5-0.9,0.8c0,0-0.1,0.1-0.1,0.1c-0.3,0.3-0.6,0.5-0.9,0.8
		c0,0,0,0,0,0c-4.4,4.2-8.5,9.3-10.3,12.9l-7.2,14.5l-6.9,1.4l-1,0.2c-0.6,3.1,1.3,4.9,4.1,5.1c0.1,0,0.3,0,0.4,0c0.2,0,0.4,0,0.7,0
		l-1.5,3.1l-0.2,0.3l-13.7,27.4c-1.7,1.4-3.7,2.8-5.5,4c0,0,0,0,0,0c-2.2,1.5-4.2,2.5-5.1,2.5c0,0,0,0-0.1,0c-0.1,0-0.2,0-0.2-0.1
		c-0.7-0.4-1-1-1-1.9c0.1-1.2,0.8-3,1.9-5.1l17.8-34.9c-0.4,0.1-0.8,0.1-1.2,0.2c-9.5,1.7-24.4,2.4-33.4,13.7
		c-9.6,11.8-13,22.7-13.3,29.3c-0.1,2.7,0.2,4.7,0.9,5.7c0.5,0.7,1.3,1.1,2.5,1.1c0.1,0,0.2,0,0.4,0c3.9,0,10.6-3.2,16.5-8.4
		c-0.3,5.1,1.3,6.8,3.4,6.9c0.1,0,0.2,0,0.2,0c2,0,4.5-1.3,6.4-2.4c1.9-1.1,5.3-3.4,7.4-5.4l-3.9,7.3l-1.3,2.5
		c-4.7,8.8-9.2,15.8-13.2,20.8c-0.3,0.3-0.5,0.7-0.8,1c0,0-0.1,0.1-0.1,0.1c-0.2,0.3-0.5,0.5-0.7,0.8c-0.1,0.1-0.1,0.1-0.2,0.2
		c-0.2,0.2-0.4,0.5-0.6,0.7c-0.1,0.1-0.1,0.1-0.2,0.2c-0.2,0.2-0.4,0.4-0.6,0.6c-0.1,0.1-0.2,0.2-0.2,0.2c-0.2,0.2-0.4,0.4-0.5,0.5
		c-0.1,0.1-0.2,0.2-0.2,0.2c-0.2,0.2-0.3,0.3-0.5,0.5c-0.1,0.1-0.2,0.1-0.3,0.2c-0.2,0.1-0.3,0.3-0.5,0.4c-0.1,0.1-0.2,0.1-0.3,0.2
		c-0.2,0.1-0.3,0.2-0.5,0.4c-0.1,0.1-0.2,0.1-0.3,0.2c-0.1,0.1-0.3,0.2-0.4,0.3c-0.1,0.1-0.2,0.1-0.3,0.2c-0.1,0.1-0.3,0.2-0.4,0.3
		c-0.1,0.1-0.2,0.1-0.3,0.2c-0.1,0.1-0.3,0.2-0.4,0.2c-0.1,0-0.2,0.1-0.3,0.1c-0.1,0.1-0.3,0.1-0.4,0.2c-0.1,0-0.2,0.1-0.3,0.1
		c-0.1,0.1-0.3,0.1-0.4,0.1c-0.1,0-0.2,0.1-0.3,0.1c-0.1,0-0.3,0.1-0.4,0.1c-0.1,0-0.2,0-0.2,0.1c-0.1,0-0.3,0-0.4,0.1
		c-0.1,0-0.1,0-0.2,0c-0.2,0-0.4,0-0.6,0c-0.1,0-0.2,0-0.3,0c-0.2,0-0.4,0-0.6,0c-0.1-0.1-0.1-0.1-0.1-0.1l0,0
		c0,0.1,6.4,7.7,6.4,7.7s0.1,0,0.4,0c0,0,0,0,0,0c0.1,0,0.1,0,0.2,0c0,0,0.1,0,0.1,0c0,0,0.1,0,0.2,0c0.1,0,0.1-0.1,0.2-0.1
		c0,0,0.1,0,0.1,0c0.1,0,0.2-0.1,0.3-0.2c0,0,0.1,0,0.1,0c0.1-0.1,0.3-0.1,0.4-0.2c0,0,0,0,0,0c1.7-1.1,4.5-3.4,7.9-7.2l0,0
		c5.2-6,11.8-15.6,18.3-30.1c0,0,14.3-28.5,23.9-48.3l10.9-2.3l-2,4l-14.2,27.9c-1.2,2.3-1.7,4.3-1.8,6c-0.1,2.6,0.8,4.4,2.3,5.1
		c0.3,0.2,0.7,0.3,1.1,0.3c0.1,0,0.2,0,0.2,0c6.4,0,24.6-12.9,31.3-22.1c0,0-2.9,0.1-4.9,2.1c-4.3,4.2-15.9,12.4-18.9,12.4
		c0,0-0.1,0-0.1,0c-0.2,0-0.3-0.1-0.4-0.1c-0.5-0.4-0.7-0.9-0.6-1.5c0.1-1,0.6-2.2,1.2-3.3c1.7-3.5,9.8-18.6,16.5-32.1l31.3-5.3
		c3.1-0.4,5.7-0.5,7.9-0.5c0.7,0,1.4,0,2.1,0.1c0.9,0.1,1.8,0.1,2.5,0.2c1.8,0.3,3.1,0.6,4.2,1c0,0,0,0,0.1,0
		c0.2,0.1,0.3,0.1,0.5,0.2c0.1,0,0.1,0.1,0.2,0.1C218.1,70.1,218.3,70.1,218.4,70.2z M103.2,114.6c-2.9,2.8-7,5.4-8.8,5.3
		c-0.2,0-0.3,0-0.4-0.1c-0.9-0.4-1.3-1.5-1.2-3.1c0.1-2.9,1.8-7.4,4.4-12.5c8.8-17.3,14.7-20.3,23.9-22.5c0,0-0.7,1.1-1.9,2.8
		c-0.3,0.4-0.6,0.9-0.9,1.4C113.8,92.8,105.6,106.3,103.2,114.6z"/>
</g>
<g>
	<path class="st4" d="M271.7,65.1c0,3.3,0.6,4.3,4.4,4.5l3.6,0.2v1.5h-23.4v-1.5l4.1-0.3c3.8-0.2,4-1.2,4-4.4V21.8h-5
		c-8.5,0-10,2.7-10.9,10.8h-1.6V20.1h42.4v12.5h-1.6c-1-8.1-2.6-10.8-11.3-10.8h-4.8V65.1z"/>
	<path class="st4" d="M295.2,52.1c-0.2,7.7,1.8,17.1,10.8,17.1c7.4,0,9.5-4.8,10.9-8.2l1.2,0.5c-1.7,5.7-5.7,10.8-13.7,10.8
		c-12.3,0-16.6-7.1-16.6-18.5c0-10.9,5-19.1,16.5-19.1c13.3,0,14.2,10.4,14.2,14.7c0,1.3-0.4,2.7-3,2.7H295.2z M308.6,50.4
		c2.6,0,2.9-1.6,2.9-3.8c0-2.9-0.7-10.4-7.6-10.4c-7.6,0-8.6,11.1-8.6,14.2H308.6z"/>
	<path class="st4" d="M340.1,71.3v-1.5l3-0.4c1.1-0.2,1.2-0.2,0.5-1.6c-1.7-3.2-5.2-9.1-6.8-11.8h-0.2c-2.4,3.6-5.7,8.6-7.4,11.8
		c-0.6,1.2,0.1,1.5,1.2,1.6l2.8,0.4v1.5h-13v-1.5c4.3-0.3,5-0.5,6.8-3c3-4,6-8.3,8.8-12.3c-3.2-5.3-6.8-10.7-9.6-15.4
		c-1.6-2.4-2.5-2.1-5.4-2.3v-1.5h15.1V37l-2.2,0.2c-1.1,0.1-1.2,0.5-0.7,1.4c1.6,2.8,4.8,8.1,6.5,10.7h0.1c2.4-3.6,5.2-8.2,6.4-10.6
		c0.5-0.9,0.2-1.2-0.9-1.4l-2.5-0.3v-1.5H355V37c-3.5,0.2-4.8,0.2-6.7,2.5c-3.1,3.8-5.7,7.7-8,11.1c3.3,5.1,7,11.8,10.4,16.6
		c1.7,2.5,2.6,2.5,6.3,2.6v1.5H340.1z"/>
	<path class="st4" d="M386.5,62.7c0,4.6,0.9,6,2.2,6.3c0.9,0.2,2,0.4,3,0.2l0.1,0.9c-1.8,1.2-3.8,2.2-6.9,2.2c-2.9,0-4.1-1.6-4.8-5
		c-2.3,1.6-6.4,5-10.9,5c-7.1,0-10.2-5-10.2-10.4c0-3.5,1.6-6.4,6.8-8c5.7-1.8,12.6-3.6,14.4-5.5v-4c0-5.7-2.5-8.4-6.4-8.4
		c-4,0-6.6,2.6-7.3,8.4c-0.2,1.1-0.5,1.6-2,1.6c-1.5,0-4.2-0.9-4.2-3.3c0-3.6,5.8-8,14.3-8c11,0,12,5.6,12,9.9V62.7z M380.1,50.1
		c-1.6,1-5.7,2.3-8.5,3.5c-4,1.5-5.5,3.6-5.5,7.1c0,4.3,2.6,8.3,7.1,8.3c2.7,0,7-1.3,7-7.1V50.1z"/>
	<path class="st4" d="M417.4,46.1c-1.6-6.2-4.3-9.9-9.4-9.9c-3.6,0-6.2,2.6-6.2,6.4c0,4.5,3.5,6,7.8,7.4c7.4,2.6,11.4,4.5,11.4,10.9
		s-5.5,11.3-14.2,11.3c-4.5,0-7.8-1.2-10.2-2.4l-0.8-10.6h1.3c1.5,6.1,4.7,11.5,10.6,11.5c3.9,0,7.4-2,7.4-6.6
		c0-4.2-3.3-6.2-7.8-7.8c-6.1-2.1-10.9-4.6-10.9-10.6c0-6.9,5.1-11.2,12.8-11.2c3.7,0,7.3,1,9.5,2.1v9.4H417.4z"/>
	<path class="st4" d="M470,71.3v-1.6l2.9-0.3c2.3-0.2,2.7-1.2,1.9-3.4c-1.3-3.8-3.8-11.1-5.4-15.4h-16.8c-1.5,4.8-2.7,8.5-3.9,13
		c-1.3,4.3-0.6,5.7,1.9,5.9l3.7,0.4v1.5h-15.9v-1.5c4.7-0.2,5.6-1.1,8.1-7.7c4.8-13,10-29,14.4-42.4h5c4.3,12,12.3,34.7,16.2,45.4
		c1.3,3.7,2.1,4.1,7.1,4.6v1.6H470z M460.8,25.5h-0.2c-2.1,6.6-5.2,16.1-7.3,23.3h15.5C466.9,43.2,463.2,31.8,460.8,25.5z"/>
	<path class="st4" d="M528.9,20.1v12.3h-1.6c-1.1-7.5-3.3-10.6-11.8-10.6h-7.1c-2.5,0-2.7,0.2-2.7,2.6v20.6h9.7c6.5,0,7.5-3,8.1-7.8
		h1.6v17.3h-1.6c-0.6-4.8-1.6-7.8-8.1-7.8h-9.7v18.3c0,4.1,0.4,4.3,7.4,4.7v1.5h-21v-1.5c5.9-0.4,6.3-0.6,6.3-4.7V26.3
		c0-4.2-0.2-4.3-6.3-4.7v-1.5H528.9z"/>
	<path class="st4" d="M560.2,65.1c0,3.3,0.6,4.3,4.4,4.5l3.6,0.2v1.5h-23.4v-1.5l4.1-0.3c3.8-0.2,4-1.2,4-4.4V21.8h-5
		c-8.5,0-10,2.7-10.9,10.8h-1.6V20.1h42.4v12.5h-1.6c-1-8.1-2.6-10.8-11.3-10.8h-4.8V65.1z"/>
</g>
<g>
	<path class="st4" d="M253.2,101.5c-1,1.9-2.4,4.5-3.2,6c-0.3,0.6-0.2,1.1,0.4,1.1l1.7,0.1l-0.2,0.9H245l0.2-0.9l1-0.1
		c0.9-0.1,1.4-0.5,2.4-2c3.7-5.9,7.6-12.9,10.5-18.3h2.3c0.4,3.3,1.9,15.5,2.3,18.5c0.2,1.3,0.3,1.7,1.2,1.8l1.2,0.1l-0.2,0.9h-8
		l0.2-0.9l1.6-0.1c0.6-0.1,0.8-0.3,0.7-1.2c-0.2-2.4-0.5-5-0.6-5.9H253.2z M258.8,91.4L258.8,91.4c-1.3,2.2-3.7,6.6-4.9,8.9h5.9
		C259.4,97.6,259,93.2,258.8,91.4z"/>
	<path class="st4" d="M286.9,88.4l-0.2,0.9l-1.7,0.1c-0.7,0.1-1,0.5-1.3,1.6l-2.4,10.5c-1.3,5.7,0.7,7.6,4.1,7.6
		c4.2,0,5.8-3.3,6.8-7.4l2.4-10.7c0.2-1,0.1-1.5-0.7-1.5l-1.8-0.2l0.2-0.9h8.4l-0.2,0.9l-1.7,0.2c-0.8,0.1-1.1,0.5-1.3,1.5L295,102
		c-1.7,7.1-5.5,8.1-9.8,8.1c-5.5,0-8.7-2.3-7.2-8.4l2.6-10.9c0.3-1,0.1-1.5-0.7-1.5l-1.8-0.2l0.3-0.9H286.9z"/>
	<path class="st4" d="M299.3,110l3.2-12.5c0.3-1,0.3-1.4-0.5-1.5l-1.9-0.1l0.2-0.8l5.7-0.8l0.2,0.1l-1.9,6.4h0.1
		c2-3.7,4.8-6.6,7.8-6.6c2.5,0,2.9,2.1,2.2,4.5l-2.4,7.9c-0.3,0.9-0.4,1.7,0.2,1.7c0.8,0,2.3-2.2,2.9-3.3l0.7,0.6
		c-1,2.3-2.8,4.4-5.1,4.4c-1.7,0-2.1-1.4-1.6-3.1l2.6-8.8c0.4-1.2,0.1-2.2-1-2.2c-2.4,0-5.3,4.5-6.4,7.1c-0.8,1.9-1.4,3.5-2.3,6.6
		L299.3,110z"/>
	<path class="st4" d="M325.2,105.7c-1,2.3-2.7,4.4-5,4.4c-1.7,0-2.1-1.3-1.7-3.1l2.6-9.5c0.3-1,0.2-1.3-0.7-1.4l-1.8-0.2l0.2-0.7
		l5.6-0.9l0.2,0.2l-3.3,12.3c-0.3,1-0.3,1.7,0.3,1.7c0.8,0,2.2-2.2,2.8-3.2L325.2,105.7z M324.3,88c0.8,0,1.7,0.5,1.7,1.7
		c0,1.2-0.8,2.1-2,2.1c-0.9,0-1.7-0.6-1.7-1.8C322.3,89.1,323,88,324.3,88L324.3,88z"/>
	<path class="st4" d="M336.4,94.2c2.4,0,5.5,1.2,5.5,5.4c0,1.7-0.5,4.2-1.9,6.4c-1.4,2.3-3.6,3.9-7,3.9c-3.9,0-5.7-2.3-5.7-5.6
		C327.3,101.6,329.1,94.2,336.4,94.2L336.4,94.2z M336.3,95.4c-4,0-5.9,7.1-5.9,10.4c0,2.1,0.9,3.2,2.7,3.2c4.1,0,5.7-8.2,5.7-10.4
		C338.8,96.7,338.1,95.4,336.3,95.4L336.3,95.4z"/>
	<path class="st4" d="M344.1,110l3.2-12.5c0.3-1,0.3-1.4-0.5-1.5l-1.9-0.1l0.2-0.8l5.7-0.8l0.2,0.1l-1.9,6.4h0.1
		c2-3.7,4.8-6.6,7.8-6.6c2.5,0,2.9,2.1,2.2,4.5l-2.4,7.9c-0.3,0.9-0.4,1.7,0.2,1.7c0.8,0,2.3-2.2,2.9-3.3l0.7,0.6
		c-1,2.3-2.8,4.4-5.1,4.4c-1.7,0-2.1-1.4-1.6-3.1l2.6-8.8c0.4-1.2,0.1-2.2-1-2.2c-2.4,0-5.3,4.5-6.4,7.1c-0.8,1.9-1.4,3.5-2.3,6.6
		L344.1,110z"/>
	<path class="st4" d="M378.8,94.2c2.4,0,5.5,1.2,5.5,5.4c0,1.7-0.5,4.2-1.9,6.4c-1.4,2.3-3.6,3.9-7,3.9c-3.9,0-5.7-2.3-5.7-5.6
		C369.7,101.6,371.5,94.2,378.8,94.2L378.8,94.2z M378.7,95.4c-4,0-5.9,7.1-5.9,10.4c0,2.1,0.9,3.2,2.7,3.2c4.1,0,5.7-8.2,5.7-10.4
		C381.2,96.7,380.5,95.4,378.7,95.4L378.7,95.4z"/>
	<path class="st4" d="M387,95.8l0.4-1.2h2.6c0.6-2.1,1-4.1,2.3-5.7c1-1.3,2.2-2.2,4.3-2.2c1.9,0,3,0.7,3,2c0,0.8-0.8,1.4-1.5,1.4
		c-0.5,0-0.7-0.2-0.8-0.6c-0.7-1.5-0.9-1.8-1.7-1.8c-0.7,0-1.3,0.8-1.9,3.1l-0.8,3.7h3.6l-0.3,1.2h-3.5l-2.6,12
		c-1.3,6.2-3.6,9.4-7,9.4c-1.7,0-2.8-0.9-2.9-1.9c0-0.8,0.8-1.6,1.6-1.6c0.4,0,0.6,0.2,0.8,0.6c0.8,1.3,1.4,1.6,2,1.6
		c0.7,0,1.2-0.9,1.6-2.9c0.8-3.8,2.6-12.2,3.6-17.1H387z"/>
	<path class="st4" d="M405.4,88.4h8c3.8,0,7.3,1.1,7.3,5.8c0,2.5-1,4.7-2.9,5.9c-1.7,1-3.8,1.4-5.8,1.4c-1.1,0-2.7-0.2-3.4-0.4
		l-1.4,6c-0.2,1-0.1,1.5,0.7,1.5l2.1,0.2l-0.2,0.9h-8.9l0.2-0.9l1.7-0.2c0.7-0.1,1-0.5,1.3-1.5l3.7-16.1c0.2-1,0-1.5-0.7-1.5
		l-1.8-0.2L405.4,88.4z M409,99.1c-0.2,0.9,1.2,1.3,2.6,1.3c3.6,0,5.6-2.2,5.6-6.6c0-2.8-1.6-4.3-4.6-4.3c-1.5,0-1.6,0.2-1.8,1.1
		L409,99.1z"/>
	<path class="st4" d="M421.8,110l2.5-10.9c0.5-2.2,0.6-3,0.1-3.1l-2.1-0.2l0.2-0.7l5.2-0.8l0.2,0.1l-1.4,5.7h0.1
		c1.7-3.4,3.8-5.8,5.5-5.8c1,0,1.4,0.5,1.4,1.4c0,0.9-0.8,2.1-1.6,2.1c-1,0-0.9-0.8-1.8-0.8c-0.9,0-2.3,2.2-3.5,5.4
		c-0.9,2.4-1.6,4.9-2.2,7.4L421.8,110z"/>
	<path class="st4" d="M442.8,94.2c2.4,0,5.5,1.2,5.5,5.4c0,1.7-0.5,4.2-1.9,6.4c-1.4,2.3-3.6,3.9-7,3.9c-3.9,0-5.7-2.3-5.7-5.6
		C433.7,101.6,435.5,94.2,442.8,94.2L442.8,94.2z M442.7,95.4c-4,0-5.9,7.1-5.9,10.4c0,2.1,0.9,3.2,2.7,3.2c4.1,0,5.7-8.2,5.7-10.4
		C445.2,96.7,444.5,95.4,442.7,95.4L442.7,95.4z"/>
	<path class="st4" d="M451,95.8l0.4-1.2h2.6c0.6-2.1,1-4.1,2.3-5.7c1-1.3,2.2-2.2,4.3-2.2c1.9,0,3,0.7,3,2c0,0.8-0.8,1.4-1.5,1.4
		c-0.5,0-0.7-0.2-0.8-0.6c-0.7-1.5-0.9-1.8-1.7-1.8c-0.7,0-1.3,0.8-1.9,3.1l-0.8,3.7h3.6l-0.3,1.2h-3.5l-2.6,12
		c-1.3,6.2-3.6,9.4-7,9.4c-1.7,0-2.8-0.9-2.9-1.9c0-0.8,0.8-1.6,1.6-1.6c0.4,0,0.6,0.2,0.8,0.6c0.8,1.3,1.4,1.6,2,1.6
		c0.7,0,1.2-0.9,1.6-2.9c0.8-3.8,2.6-12.2,3.6-17.1H451z"/>
	<path class="st4" d="M471.1,105.6c-2.1,3.5-4.9,4.5-7.3,4.5c-2,0-4.6-0.8-4.6-5.1c0-2.5,0.9-5.4,2.6-7.4c1.7-2.1,3.8-3.4,6.6-3.4
		c2.5,0,3.7,1.5,3.7,3.1c0,4.2-6.5,5.4-9.7,5.8c0,0.2,0,1,0,1.1c0,2.4,0.6,4.2,2.8,4.2c2.3,0,4.1-1.9,5.2-3.6L471.1,105.6z
		 M469.2,97.1c0-1.1-0.6-1.8-1.7-1.8c-2.4,0-4.6,3.1-5.1,6.8C466.4,101.5,469.2,100.1,469.2,97.1z"/>
	<path class="st4" d="M480.1,94.2c2.7,0,3.7,1.6,3.7,2.5c0,0.8-0.8,1.3-1.4,1.3c-0.5,0-0.7-0.2-0.9-0.6c-0.6-1.4-1.3-2.1-2.4-2.1
		c-1.1,0-1.9,0.8-1.9,2c0,1,0.2,1.8,2.1,3.3c2.2,1.8,3,2.7,3,4.6c0,2.4-2.2,4.8-5.6,4.8c-3.1,0-4.4-1.8-4.4-3c0-0.7,0.7-1.6,1.6-1.6
		c0.5,0,0.7,0.3,0.9,0.9c0.5,1.6,1.7,2.5,2.9,2.5c1.2,0,2.1-0.7,2.1-2.2c0-1-0.6-2.2-2.2-3.6c-1.5-1.3-2.7-2.3-2.7-4.2
		C474.9,96.3,476.8,94.2,480.1,94.2L480.1,94.2z"/>
	<path class="st4" d="M491.7,94.2c2.7,0,3.7,1.6,3.7,2.5c0,0.8-0.8,1.3-1.4,1.3c-0.5,0-0.7-0.2-0.9-0.6c-0.6-1.4-1.3-2.1-2.4-2.1
		c-1.1,0-1.9,0.8-1.9,2c0,1,0.2,1.8,2.1,3.3c2.2,1.8,3,2.7,3,4.6c0,2.4-2.2,4.8-5.6,4.8c-3.1,0-4.4-1.8-4.4-3c0-0.7,0.7-1.6,1.6-1.6
		c0.5,0,0.7,0.3,0.9,0.9c0.5,1.6,1.7,2.5,2.9,2.5c1.2,0,2.1-0.7,2.1-2.2c0-1-0.6-2.2-2.2-3.6c-1.5-1.3-2.7-2.3-2.7-4.2
		C486.5,96.3,488.4,94.2,491.7,94.2L491.7,94.2z"/>
	<path class="st4" d="M504.2,105.7c-1,2.3-2.7,4.4-5,4.4c-1.7,0-2.1-1.3-1.7-3.1l2.6-9.5c0.3-1,0.2-1.3-0.7-1.4l-1.8-0.2l0.2-0.7
		l5.6-0.9l0.2,0.2l-3.3,12.3c-0.3,1-0.3,1.7,0.3,1.7c0.8,0,2.2-2.2,2.8-3.2L504.2,105.7z M503.3,88c0.8,0,1.7,0.5,1.7,1.7
		c0,1.2-0.8,2.1-2,2.1c-0.9,0-1.7-0.6-1.7-1.8C501.3,89.1,502,88,503.3,88L503.3,88z"/>
	<path class="st4" d="M515.4,94.2c2.4,0,5.5,1.2,5.5,5.4c0,1.7-0.5,4.2-1.9,6.4c-1.4,2.3-3.6,3.9-7,3.9c-3.9,0-5.7-2.3-5.7-5.6
		C506.3,101.6,508.1,94.2,515.4,94.2L515.4,94.2z M515.3,95.4c-4,0-5.9,7.1-5.9,10.4c0,2.1,0.9,3.2,2.7,3.2c4.1,0,5.7-8.2,5.7-10.4
		C517.8,96.7,517.1,95.4,515.3,95.4L515.3,95.4z"/>
	<path class="st4" d="M523.1,110l3.2-12.5c0.3-1,0.3-1.4-0.5-1.5l-1.9-0.1l0.2-0.8l5.7-0.8l0.2,0.1l-1.9,6.4h0.1
		c2-3.7,4.8-6.6,7.8-6.6c2.5,0,2.9,2.1,2.2,4.5l-2.4,7.9c-0.3,0.9-0.4,1.7,0.2,1.7c0.8,0,2.3-2.2,2.9-3.3l0.7,0.6
		c-1,2.3-2.8,4.4-5.1,4.4c-1.7,0-2.1-1.4-1.6-3.1l2.6-8.8c0.4-1.2,0.1-2.2-1-2.2c-2.4,0-5.3,4.5-6.4,7.1c-0.8,1.9-1.4,3.5-2.3,6.6
		L523.1,110z"/>
	<path class="st4" d="M557,94.6l-3.2,12.1c-0.3,1-0.3,1.7,0.3,1.7c0.8,0,2.2-2.2,2.7-3.3l0.8,0.5c-1.1,2.3-2.8,4.5-5.1,4.5
		c-1.7,0-2.1-1.3-1.4-3.5l0.9-3.2h-0.1c-1.8,3.1-4.6,6.7-7.9,6.7c-2.2,0-2.8-1.6-2.8-3.7c0-4,3.3-12.1,10.6-12.1
		c1,0,1.9,0.3,2.4,0.7l0.1-0.4H557z M552,95.4c-4.8,0-7.7,7.5-7.7,10.9c0,1.2,0.3,2.1,1.3,2.1c2.8,0,6.6-6.9,7.6-9.9
		c0.3-0.9,0.5-1.7,0.7-2.4C553.4,95.6,552.7,95.4,552,95.4z"/>
	<path class="st4" d="M566.4,105.7c-1,2.3-2.8,4.4-5.1,4.4c-1.7,0-2.1-1.3-1.7-3.1l4.3-17.1c0.3-1.2,0.2-1.4-0.6-1.5l-1.7-0.2
		l0.2-0.7l5.6-0.7l0.2,0.1l-5,19.9c-0.3,1-0.3,1.6,0.2,1.6c0.7,0,2.2-1.8,2.9-3.2L566.4,105.7z"/>
	<path class="st4" d="M575,94.2c2.7,0,3.7,1.6,3.7,2.5c0,0.8-0.8,1.3-1.4,1.3c-0.5,0-0.7-0.2-0.9-0.6c-0.6-1.4-1.3-2.1-2.4-2.1
		c-1.1,0-1.9,0.8-1.9,2c0,1,0.2,1.8,2.1,3.3c2.2,1.8,3,2.7,3,4.6c0,2.4-2.2,4.8-5.6,4.8c-3.1,0-4.4-1.8-4.4-3c0-0.7,0.7-1.6,1.6-1.6
		c0.5,0,0.7,0.3,0.9,0.9c0.5,1.6,1.7,2.5,2.9,2.5c1.2,0,2.1-0.7,2.1-2.2c0-1-0.6-2.2-2.2-3.6c-1.5-1.3-2.7-2.3-2.7-4.2
		C569.8,96.3,571.7,94.2,575,94.2L575,94.2z"/>
</g>
</svg>
